<svg width="34" height="36" viewBox="0 0 34 36" fill="none" xmlns="http://www.w3.org/2000/svg">
<mask id="path-1-inside-1_904_4" fill="white">
<path fill-rule="evenodd" clip-rule="evenodd" d="M17 34.1053C26.3888 34.1053 34 26.4705 34 17.0526C34 7.63472 26.3888 0 17 0C14.286 0 11.7205 0.637969 9.44444 1.77256V1C9.44444 0.447715 8.99673 0 8.44445 0H1C0.447715 0 0 0.447716 0 1V17.0526V35C0 35.5523 0.447714 36 0.999999 36H8.44444C8.99673 36 9.44444 35.5523 9.44444 35V32.3327C11.7205 33.4673 14.286 34.1053 17 34.1053ZM17 24.6316C21.1728 24.6316 24.5556 21.2384 24.5556 17.0526C24.5556 12.8669 21.1728 9.4737 17 9.4737C12.8272 9.4737 9.44446 12.8669 9.44446 17.0526C9.44446 21.2384 12.8272 24.6316 17 24.6316ZM17 19.8947C18.5648 19.8947 19.8333 18.6222 19.8333 17.0526C19.8333 15.4829 18.5648 14.2105 17 14.2105C15.4352 14.2105 14.1667 15.4829 14.1667 17.0526C14.1667 18.6222 15.4352 19.8947 17 19.8947Z"/>
</mask>
<path fill-rule="evenodd" clip-rule="evenodd" d="M17 34.1053C26.3888 34.1053 34 26.4705 34 17.0526C34 7.63472 26.3888 0 17 0C14.286 0 11.7205 0.637969 9.44444 1.77256V1C9.44444 0.447715 8.99673 0 8.44445 0H1C0.447715 0 0 0.447716 0 1V17.0526V35C0 35.5523 0.447714 36 0.999999 36H8.44444C8.99673 36 9.44444 35.5523 9.44444 35V32.3327C11.7205 33.4673 14.286 34.1053 17 34.1053ZM17 24.6316C21.1728 24.6316 24.5556 21.2384 24.5556 17.0526C24.5556 12.8669 21.1728 9.4737 17 9.4737C12.8272 9.4737 9.44446 12.8669 9.44446 17.0526C9.44446 21.2384 12.8272 24.6316 17 24.6316ZM17 19.8947C18.5648 19.8947 19.8333 18.6222 19.8333 17.0526C19.8333 15.4829 18.5648 14.2105 17 14.2105C15.4352 14.2105 14.1667 15.4829 14.1667 17.0526C14.1667 18.6222 15.4352 19.8947 17 19.8947Z" fill="#3279BD"/>
<path d="M9.44444 1.77256H8.44444V3.38842L9.89058 2.66753L9.44444 1.77256ZM9.44444 32.3327L9.89058 31.4377L8.44444 30.7168V32.3327H9.44444ZM33 17.0526C33 25.9212 25.8336 33.1053 17 33.1053V35.1053C26.944 35.1053 35 27.0199 35 17.0526H33ZM17 1C25.8336 1 33 8.18409 33 17.0526H35C35 7.08536 26.944 -1 17 -1V1ZM9.89058 2.66753C12.0312 1.60042 14.4443 1 17 1V-1C14.1276 -1 11.4097 -0.324482 8.99831 0.877599L9.89058 2.66753ZM8.44444 1V1.77256H10.4444V1H8.44444ZM8.44445 1H8.44444H10.4444C10.4444 -0.104568 9.54902 -1 8.44445 -1V1ZM1 1H8.44445V-1H1V1ZM1 1L1 1V-1C-0.10457 -1 -1 -0.104568 -1 1H1ZM1 17.0526V1H-1V17.0526H1ZM1 35V17.0526H-1V35H1ZM0.999999 35H1H-1C-1 36.1046 -0.104573 37 0.999999 37V35ZM8.44444 35H0.999999V37H8.44444V35ZM8.44444 35V37C9.54902 37 10.4444 36.1046 10.4444 35H8.44444ZM8.44444 32.3327V35H10.4444V32.3327H8.44444ZM17 33.1053C14.4443 33.1053 12.0312 32.5048 9.89058 31.4377L8.99831 33.2277C11.4097 34.4297 14.1276 35.1053 17 35.1053V33.1053ZM23.5556 17.0526C23.5556 20.689 20.6176 23.6316 17 23.6316V25.6316C21.728 25.6316 25.5556 21.7878 25.5556 17.0526H23.5556ZM17 10.4737C20.6176 10.4737 23.5556 13.4163 23.5556 17.0526H25.5556C25.5556 12.3175 21.728 8.4737 17 8.4737V10.4737ZM10.4445 17.0526C10.4445 13.4163 13.3824 10.4737 17 10.4737V8.4737C12.272 8.4737 8.44446 12.3175 8.44446 17.0526H10.4445ZM17 23.6316C13.3824 23.6316 10.4445 20.689 10.4445 17.0526H8.44446C8.44446 21.7878 12.272 25.6316 17 25.6316V23.6316ZM18.8333 17.0526C18.8333 18.0729 18.0096 18.8947 17 18.8947V20.8947C19.12 20.8947 20.8333 19.1716 20.8333 17.0526H18.8333ZM17 15.2105C18.0096 15.2105 18.8333 16.0323 18.8333 17.0526H20.8333C20.8333 14.9336 19.12 13.2105 17 13.2105V15.2105ZM15.1667 17.0526C15.1667 16.0323 15.9904 15.2105 17 15.2105V13.2105C14.88 13.2105 13.1667 14.9336 13.1667 17.0526H15.1667ZM17 18.8947C15.9904 18.8947 15.1667 18.0729 15.1667 17.0526H13.1667C13.1667 19.1716 14.88 20.8947 17 20.8947V18.8947Z" fill="#1B3954" mask="url(#path-1-inside-1_904_4)"/>
</svg>
