<svg width="256" height="256" viewBox="0 0 256 256" fill="none" xmlns="http://www.w3.org/2000/svg">
<g clip-path="url(#clip0_1611_35)">
<rect width="256" height="256" rx="128" fill="white"/>
<mask id="path-2-outside-1_1611_35" maskUnits="userSpaceOnUse" x="0" y="0" width="256" height="256" fill="black">
<rect fill="white" width="256" height="256"/>
<path fill-rule="evenodd" clip-rule="evenodd" d="M128 251C195.931 251 251 195.931 251 128C251 60.069 195.931 5 128 5C60.069 5 5 60.069 5 128C5 195.931 60.069 251 128 251ZM218 128C218 177.706 177.706 218 128 218C111.193 218 95.4613 213.393 82 205.372V218C57.6995 218 38 198.301 38 174V128C38 78.2944 78.2944 38 128 38C177.706 38 218 78.2944 218 128ZM128 174C102.595 174 82 153.405 82 128C82 102.595 102.595 82 128 82C153.405 82 174 102.595 174 128C174 153.405 153.405 174 128 174ZM128 144C136.837 144 144 136.837 144 128C144 119.163 136.837 112 128 112C119.163 112 112 119.163 112 128C112 136.837 119.163 144 128 144Z"/>
</mask>
<path fill-rule="evenodd" clip-rule="evenodd" d="M128 251C195.931 251 251 195.931 251 128C251 60.069 195.931 5 128 5C60.069 5 5 60.069 5 128C5 195.931 60.069 251 128 251ZM218 128C218 177.706 177.706 218 128 218C111.193 218 95.4613 213.393 82 205.372V218C57.6995 218 38 198.301 38 174V128C38 78.2944 78.2944 38 128 38C177.706 38 218 78.2944 218 128ZM128 174C102.595 174 82 153.405 82 128C82 102.595 102.595 82 128 82C153.405 82 174 102.595 174 128C174 153.405 153.405 174 128 174ZM128 144C136.837 144 144 136.837 144 128C144 119.163 136.837 112 128 112C119.163 112 112 119.163 112 128C112 136.837 119.163 144 128 144Z" fill="#3279BD"/>
<path d="M82 205.372L84.5592 201.077L77 196.573V205.372H82ZM82 218V223H87V218H82ZM246 128C246 193.17 193.17 246 128 246V256C198.692 256 256 198.692 256 128H246ZM128 10C193.17 10 246 62.8304 246 128H256C256 57.3076 198.692 0 128 0V10ZM10 128C10 62.8304 62.8304 10 128 10V0C57.3076 0 0 57.3076 0 128H10ZM128 246C62.8304 246 10 193.17 10 128H0C0 198.692 57.3076 256 128 256V246ZM128 223C180.467 223 223 180.467 223 128H213C213 174.944 174.944 213 128 213V223ZM79.4408 209.668C93.6546 218.137 110.267 223 128 223V213C112.118 213 97.268 208.649 84.5592 201.077L79.4408 209.668ZM87 218V205.372H77V218H87ZM33 174C33 201.062 54.938 223 82 223V213C60.4609 213 43 195.539 43 174H33ZM33 128V174H43V128H33ZM128 33C75.533 33 33 75.533 33 128H43C43 81.0558 81.0558 43 128 43V33ZM223 128C223 75.533 180.467 33 128 33V43C174.944 43 213 81.0558 213 128H223ZM77 128C77 156.167 99.8335 179 128 179V169C105.356 169 87 150.644 87 128H77ZM128 77C99.8335 77 77 99.8335 77 128H87C87 105.356 105.356 87 128 87V77ZM179 128C179 99.8335 156.167 77 128 77V87C150.644 87 169 105.356 169 128H179ZM128 179C156.167 179 179 156.167 179 128H169C169 150.644 150.644 169 128 169V179ZM139 128C139 134.075 134.075 139 128 139V149C139.598 149 149 139.598 149 128H139ZM128 117C134.075 117 139 121.925 139 128H149C149 116.402 139.598 107 128 107V117ZM117 128C117 121.925 121.925 117 128 117V107C116.402 107 107 116.402 107 128H117ZM128 139C121.925 139 117 134.075 117 128H107C107 139.598 116.402 149 128 149V139Z" fill="#1B3954" mask="url(#path-2-outside-1_1611_35)"/>
</g>
<defs>
<clipPath id="clip0_1611_35">
<rect width="256" height="256" rx="128" fill="white"/>
</clipPath>
</defs>
</svg>
