<svg width="155" height="36" viewBox="0 0 155 36" fill="none" xmlns="http://www.w3.org/2000/svg">
<g clip-path="url(#clip0_908_14)">
<path fill-rule="evenodd" clip-rule="evenodd" d="M17 34.1053C26.3888 34.1053 34 26.4705 34 17.0526C34 7.63472 26.3888 0 17 0C14.286 0 11.7205 0.637969 9.44444 1.77256V1C9.44444 0.447715 8.99673 0 8.44445 0H1C0.447715 0 0 0.447716 0 1V17.0526V35C0 35.5523 0.447714 36 0.999999 36H8.44444C8.99673 36 9.44444 35.5523 9.44444 35V32.3327C11.7205 33.4673 14.286 34.1053 17 34.1053ZM17 24.6316C21.1728 24.6316 24.5556 21.2384 24.5556 17.0526C24.5556 12.8669 21.1728 9.4737 17 9.4737C12.8272 9.4737 9.44446 12.8669 9.44446 17.0526C9.44446 21.2384 12.8272 24.6316 17 24.6316ZM17 19.8947C18.5648 19.8947 19.8333 18.6222 19.8333 17.0526C19.8333 15.4829 18.5648 14.2105 17 14.2105C15.4352 14.2105 14.1667 15.4829 14.1667 17.0526C14.1667 18.6222 15.4352 19.8947 17 19.8947Z" fill="white"/>
<path d="M44.2101 19.176C44.2101 19.0993 44.2331 19.038 44.2791 18.992C44.3405 18.9307 44.4095 18.9 44.4861 18.9H47.7521C47.8288 18.9 47.8901 18.9307 47.9361 18.992C47.9975 19.038 48.0281 19.0993 48.0281 19.176V34.724C48.0281 34.8007 47.9975 34.8697 47.9361 34.931C47.8901 34.977 47.8288 35 47.7521 35H44.4861C44.4095 35 44.3405 34.977 44.2791 34.931C44.2331 34.8697 44.2101 34.8007 44.2101 34.724V33.965C44.2101 33.919 44.1948 33.896 44.1641 33.896C44.1335 33.8807 44.1028 33.8883 44.0721 33.919C43.4588 34.7623 42.5771 35.184 41.4271 35.184C40.3845 35.184 39.4568 34.8697 38.6441 34.241C37.8468 33.6123 37.2795 32.7537 36.9421 31.665C36.6968 30.837 36.5741 29.9477 36.5741 28.997C36.5741 27.9237 36.7351 26.9577 37.0571 26.099C37.4098 25.1483 37.9695 24.3817 38.7361 23.799C39.5181 23.2163 40.4611 22.925 41.5651 22.925C42.6691 22.925 43.5048 23.2853 44.0721 24.006C44.1028 24.052 44.1335 24.0673 44.1641 24.052C44.1948 24.0367 44.2101 24.006 44.2101 23.96V19.176ZM43.8191 31.021C44.0798 30.5303 44.2101 29.8787 44.2101 29.066C44.2101 28.1767 44.0645 27.4867 43.7731 26.996C43.4511 26.4593 42.9988 26.191 42.4161 26.191C41.7875 26.191 41.3198 26.467 41.0131 27.019C40.7065 27.5403 40.5531 28.2227 40.5531 29.066C40.5531 29.8787 40.6911 30.538 40.9671 31.044C41.2891 31.6267 41.7721 31.918 42.4161 31.918C43.0295 31.918 43.4971 31.619 43.8191 31.021ZM62.8917 28.008C62.9684 28.468 62.9914 29.0737 62.9607 29.825C62.9454 30.009 62.8457 30.101 62.6617 30.101H55.6467C55.616 30.101 55.5854 30.1163 55.5547 30.147C55.524 30.1623 55.5164 30.1853 55.5317 30.216C55.5624 30.3847 55.639 30.607 55.7617 30.883C55.9457 31.205 56.2217 31.4657 56.5897 31.665C56.9577 31.8643 57.41 31.964 57.9467 31.964C58.9127 31.964 59.6717 31.6497 60.2237 31.021C60.285 30.9443 60.354 30.906 60.4307 30.906C60.5074 30.906 60.5687 30.9367 60.6147 30.998L62.3857 33.022C62.447 33.068 62.4777 33.1293 62.4777 33.206C62.4777 33.2673 62.447 33.3287 62.3857 33.39C61.849 33.9727 61.182 34.4173 60.3847 34.724C59.6027 35.0307 58.744 35.184 57.8087 35.184C56.4134 35.184 55.225 34.885 54.2437 34.287C53.2777 33.6737 52.58 32.8227 52.1507 31.734C51.8287 30.9673 51.6677 30.009 51.6677 28.859C51.6677 28.0617 51.7904 27.295 52.0357 26.559C52.4344 25.4243 53.086 24.535 53.9907 23.891C54.9107 23.2317 55.9994 22.902 57.2567 22.902C58.2687 22.902 59.1734 23.1243 59.9707 23.569C60.768 23.9983 61.412 24.604 61.9027 25.386C62.4087 26.1527 62.7384 27.0267 62.8917 28.008ZM57.2567 26.191C56.4594 26.191 55.9304 26.5667 55.6697 27.318C55.6084 27.4867 55.57 27.6477 55.5547 27.801C55.524 27.8777 55.5547 27.916 55.6467 27.916H58.9127C58.974 27.916 59.0047 27.8853 59.0047 27.824C59.0047 27.7013 58.974 27.548 58.9127 27.364C58.8054 26.9807 58.606 26.6893 58.3147 26.49C58.0387 26.2907 57.686 26.191 57.2567 26.191ZM68.9775 35C68.8242 35 68.7245 34.9233 68.6785 34.77L65.0675 23.408C65.0522 23.3773 65.0445 23.339 65.0445 23.293C65.0445 23.155 65.1289 23.086 65.2975 23.086H68.8855C69.0542 23.086 69.1615 23.1627 69.2075 23.316L70.7255 29.641C70.7409 29.687 70.7639 29.71 70.7945 29.71C70.8252 29.71 70.8482 29.687 70.8635 29.641L72.4045 23.316C72.4505 23.1627 72.5579 23.086 72.7265 23.086L76.2915 23.132C76.3835 23.132 76.4525 23.1627 76.4985 23.224C76.5445 23.27 76.5522 23.3467 76.5215 23.454L72.9335 34.77C72.8875 34.9233 72.7879 35 72.6345 35H68.9775ZM89.9086 28.008C89.9853 28.468 90.0083 29.0737 89.9776 29.825C89.9623 30.009 89.8626 30.101 89.6786 30.101H82.6636C82.633 30.101 82.6023 30.1163 82.5716 30.147C82.541 30.1623 82.5333 30.1853 82.5486 30.216C82.5793 30.3847 82.656 30.607 82.7786 30.883C82.9626 31.205 83.2386 31.4657 83.6066 31.665C83.9746 31.8643 84.427 31.964 84.9636 31.964C85.9296 31.964 86.6886 31.6497 87.2406 31.021C87.302 30.9443 87.371 30.906 87.4476 30.906C87.5243 30.906 87.5856 30.9367 87.6316 30.998L89.4026 33.022C89.464 33.068 89.4946 33.1293 89.4946 33.206C89.4946 33.2673 89.464 33.3287 89.4026 33.39C88.866 33.9727 88.199 34.4173 87.4016 34.724C86.6196 35.0307 85.761 35.184 84.8256 35.184C83.4303 35.184 82.242 34.885 81.2606 34.287C80.2946 33.6737 79.597 32.8227 79.1676 31.734C78.8456 30.9673 78.6846 30.009 78.6846 28.859C78.6846 28.0617 78.8073 27.295 79.0526 26.559C79.4513 25.4243 80.103 24.535 81.0076 23.891C81.9276 23.2317 83.0163 22.902 84.2736 22.902C85.2856 22.902 86.1903 23.1243 86.9876 23.569C87.785 23.9983 88.429 24.604 88.9196 25.386C89.4256 26.1527 89.7553 27.0267 89.9086 28.008ZM84.2736 26.191C83.4763 26.191 82.9473 26.5667 82.6866 27.318C82.6253 27.4867 82.587 27.6477 82.5716 27.801C82.541 27.8777 82.5716 27.916 82.6636 27.916H85.9296C85.991 27.916 86.0216 27.8853 86.0216 27.824C86.0216 27.7013 85.991 27.548 85.9296 27.364C85.8223 26.9807 85.623 26.6893 85.3316 26.49C85.0556 26.2907 84.703 26.191 84.2736 26.191ZM93.6531 35C93.5765 35 93.5075 34.977 93.4461 34.931C93.4001 34.8697 93.3771 34.8007 93.3771 34.724V19.176C93.3771 19.0993 93.4001 19.038 93.4461 18.992C93.5075 18.9307 93.5765 18.9 93.6531 18.9H96.9191C96.9958 18.9 97.0571 18.9307 97.1031 18.992C97.1645 19.038 97.1951 19.0993 97.1951 19.176V34.724C97.1951 34.8007 97.1645 34.8697 97.1031 34.931C97.0571 34.977 96.9958 35 96.9191 35H93.6531ZM106.396 35.184C105.016 35.184 103.843 34.816 102.877 34.08C101.911 33.344 101.267 32.3473 100.945 31.09C100.761 30.4613 100.669 29.7713 100.669 29.02C100.669 28.1767 100.768 27.433 100.968 26.789C101.32 25.5777 101.972 24.6347 102.923 23.96C103.889 23.27 105.054 22.925 106.419 22.925C107.768 22.925 108.91 23.27 109.846 23.96C110.781 24.6347 111.433 25.57 111.801 26.766C112.015 27.456 112.123 28.192 112.123 28.974C112.123 29.6793 112.038 30.354 111.87 30.998C111.548 32.286 110.904 33.3057 109.938 34.057C108.972 34.8083 107.791 35.184 106.396 35.184ZM106.396 31.918C106.84 31.918 107.208 31.78 107.5 31.504C107.791 31.2127 108.006 30.8217 108.144 30.331C108.236 29.9323 108.282 29.4953 108.282 29.02C108.282 28.56 108.228 28.1153 108.121 27.686C107.998 27.2107 107.791 26.8427 107.5 26.582C107.208 26.3213 106.84 26.191 106.396 26.191C105.506 26.191 104.924 26.6893 104.648 27.686C104.556 28.054 104.51 28.4987 104.51 29.02C104.51 29.4953 104.556 29.9323 104.648 30.331C104.77 30.8217 104.977 31.2127 105.269 31.504C105.575 31.78 105.951 31.918 106.396 31.918ZM126.788 26.421C127.033 27.249 127.156 28.1383 127.156 29.089C127.156 30.1777 126.995 31.1437 126.673 31.987C126.32 32.9377 125.753 33.712 124.971 34.31C124.204 34.8927 123.269 35.184 122.165 35.184C121.061 35.184 120.225 34.8237 119.658 34.103C119.627 34.057 119.597 34.0417 119.566 34.057C119.535 34.0723 119.52 34.103 119.52 34.149V38.933C119.52 39.0097 119.489 39.071 119.428 39.117C119.382 39.1783 119.321 39.209 119.244 39.209H115.978C115.901 39.209 115.832 39.1783 115.771 39.117C115.725 39.071 115.702 39.0097 115.702 38.933V23.385C115.702 23.3083 115.725 23.247 115.771 23.201C115.832 23.1397 115.901 23.109 115.978 23.109H119.244C119.321 23.109 119.382 23.1397 119.428 23.201C119.489 23.247 119.52 23.3083 119.52 23.385V24.144C119.52 24.19 119.535 24.2207 119.566 24.236C119.597 24.236 119.627 24.2207 119.658 24.19C120.271 23.3467 121.153 22.925 122.303 22.925C123.346 22.925 124.266 23.2393 125.063 23.868C125.86 24.4813 126.435 25.3323 126.788 26.421ZM122.717 31.09C123.024 30.5687 123.177 29.8787 123.177 29.02C123.177 28.192 123.039 27.5403 122.763 27.065C122.441 26.4823 121.958 26.191 121.314 26.191C120.701 26.191 120.233 26.4823 119.911 27.065C119.65 27.5863 119.52 28.2457 119.52 29.043C119.52 29.9017 119.666 30.5917 119.957 31.113C120.279 31.6497 120.731 31.918 121.314 31.918C121.943 31.918 122.41 31.642 122.717 31.09ZM141.651 28.008C141.728 28.468 141.751 29.0737 141.72 29.825C141.705 30.009 141.605 30.101 141.421 30.101H134.406C134.376 30.101 134.345 30.1163 134.314 30.147C134.284 30.1623 134.276 30.1853 134.291 30.216C134.322 30.3847 134.399 30.607 134.521 30.883C134.705 31.205 134.981 31.4657 135.349 31.665C135.717 31.8643 136.17 31.964 136.706 31.964C137.672 31.964 138.431 31.6497 138.983 31.021C139.045 30.9443 139.114 30.906 139.19 30.906C139.267 30.906 139.328 30.9367 139.374 30.998L141.145 33.022C141.207 33.068 141.237 33.1293 141.237 33.206C141.237 33.2673 141.207 33.3287 141.145 33.39C140.609 33.9727 139.942 34.4173 139.144 34.724C138.362 35.0307 137.504 35.184 136.568 35.184C135.173 35.184 133.985 34.885 133.003 34.287C132.037 33.6737 131.34 32.8227 130.91 31.734C130.588 30.9673 130.427 30.009 130.427 28.859C130.427 28.0617 130.55 27.295 130.795 26.559C131.194 25.4243 131.846 24.535 132.75 23.891C133.67 23.2317 134.759 22.902 136.016 22.902C137.028 22.902 137.933 23.1243 138.73 23.569C139.528 23.9983 140.172 24.604 140.662 25.386C141.168 26.1527 141.498 27.0267 141.651 28.008ZM136.016 26.191C135.219 26.191 134.69 26.5667 134.429 27.318C134.368 27.4867 134.33 27.6477 134.314 27.801C134.284 27.8777 134.314 27.916 134.406 27.916H137.672C137.734 27.916 137.764 27.8853 137.764 27.824C137.764 27.7013 137.734 27.548 137.672 27.364C137.565 26.9807 137.366 26.6893 137.074 26.49C136.798 26.2907 136.446 26.191 136.016 26.191ZM151.445 22.948C151.997 22.948 152.426 23.0477 152.733 23.247C152.856 23.3237 152.902 23.4387 152.871 23.592L152.342 26.789C152.327 26.973 152.219 27.0267 152.02 26.95C151.744 26.8887 151.483 26.858 151.238 26.858C150.977 26.858 150.778 26.8733 150.64 26.904C150.165 26.9653 149.758 27.1493 149.421 27.456C149.099 27.7627 148.938 28.169 148.938 28.675V34.724C148.938 34.8007 148.907 34.8697 148.846 34.931C148.8 34.977 148.739 35 148.662 35H145.396C145.319 35 145.25 34.977 145.189 34.931C145.143 34.8697 145.12 34.8007 145.12 34.724V23.385C145.12 23.3083 145.143 23.247 145.189 23.201C145.25 23.1397 145.319 23.109 145.396 23.109H148.662C148.739 23.109 148.8 23.1397 148.846 23.201C148.907 23.247 148.938 23.3083 148.938 23.385V24.121C148.938 24.167 148.953 24.1977 148.984 24.213C149.015 24.2283 149.038 24.213 149.053 24.167C149.666 23.3543 150.464 22.948 151.445 22.948Z" fill="white"/>
<path d="M44.032 14.018H40.6V18H35.32V1.5H43.636C47.42 1.5 49.312 3.53133 49.312 7.594C49.312 8.48867 49.224 9.32467 49.048 10.102C48.872 10.8793 48.5713 11.5613 48.146 12.148C47.7353 12.72 47.1927 13.1747 46.518 13.512C45.858 13.8493 45.0293 14.018 44.032 14.018ZM41.81 5.724H40.6V9.794H41.81C42.4553 9.794 42.9173 9.728 43.196 9.596C43.4893 9.464 43.636 9.156 43.636 8.672V6.824C43.636 6.35467 43.4893 6.054 43.196 5.922C42.9173 5.79 42.4553 5.724 41.81 5.724ZM49.2242 9.772C49.2242 8.26133 49.3488 6.96333 49.5982 5.878C49.8622 4.778 50.2948 3.876 50.8962 3.172C51.5122 2.468 52.3188 1.94733 53.3162 1.61C54.3135 1.27267 55.5455 1.104 57.0122 1.104C58.4935 1.104 59.7255 1.27267 60.7082 1.61C61.7055 1.94733 62.5048 2.468 63.1062 3.172C63.7222 3.876 64.1548 4.778 64.4042 5.878C64.6682 6.96333 64.8002 8.26133 64.8002 9.772C64.8002 11.2093 64.6828 12.4707 64.4482 13.556C64.2135 14.6267 63.7955 15.5213 63.1942 16.24C62.6075 16.9587 61.8082 17.5013 60.7962 17.868C59.7988 18.22 58.5375 18.396 57.0122 18.396C55.4868 18.396 54.2182 18.22 53.2062 17.868C52.2088 17.5013 51.4095 16.9587 50.8082 16.24C50.2215 15.5213 49.8108 14.6267 49.5762 13.556C49.3415 12.4707 49.2242 11.2093 49.2242 9.772ZM54.9002 7.022V13.886H57.1002C57.8335 13.886 58.3542 13.8053 58.6622 13.644C58.9848 13.468 59.1462 13.0793 59.1462 12.478V5.614H56.9242C56.2202 5.614 55.7068 5.702 55.3842 5.878C55.0615 6.03933 54.9002 6.42067 54.9002 7.022ZM74.4771 14.018H71.0451V18H65.7651V1.5H74.0811C77.8651 1.5 79.7571 3.53133 79.7571 7.594C79.7571 8.48867 79.6691 9.32467 79.4931 10.102C79.3171 10.8793 79.0164 11.5613 78.5911 12.148C78.1804 12.72 77.6377 13.1747 76.9631 13.512C76.3031 13.8493 75.4744 14.018 74.4771 14.018ZM72.2551 5.724H71.0451V9.794H72.2551C72.9004 9.794 73.3624 9.728 73.6411 9.596C73.9344 9.464 74.0811 9.156 74.0811 8.672V6.824C74.0811 6.35467 73.9344 6.054 73.6411 5.922C73.3624 5.79 72.9004 5.724 72.2551 5.724ZM91.0213 7.946H85.7413V5.724H91.4173L92.0773 1.5H80.4613V18H92.2093V13.776H85.7413V11.774H91.0213V7.946ZM108.088 18V1.5H102.808V7.33H98.8476V1.5H93.5676V18H98.8476V12.17H102.808V18H108.088ZM115.134 18V1.5H109.854V18H115.134ZM126.669 7.946H122.181V5.724H127.065L127.725 1.5H116.901V18H122.181V11.884H126.669V7.946ZM138.999 13.776H133.719V1.5H128.439V18H138.999V13.776ZM138.777 9.772C138.777 8.26133 138.902 6.96333 139.151 5.878C139.415 4.778 139.848 3.876 140.449 3.172C141.065 2.468 141.872 1.94733 142.869 1.61C143.866 1.27267 145.098 1.104 146.565 1.104C148.046 1.104 149.278 1.27267 150.261 1.61C151.258 1.94733 152.058 2.468 152.659 3.172C153.275 3.876 153.708 4.778 153.957 5.878C154.221 6.96333 154.353 8.26133 154.353 9.772C154.353 11.2093 154.236 12.4707 154.001 13.556C153.766 14.6267 153.348 15.5213 152.747 16.24C152.16 16.9587 151.361 17.5013 150.349 17.868C149.352 18.22 148.09 18.396 146.565 18.396C145.04 18.396 143.771 18.22 142.759 17.868C141.762 17.5013 140.962 16.9587 140.361 16.24C139.774 15.5213 139.364 14.6267 139.129 13.556C138.894 12.4707 138.777 11.2093 138.777 9.772ZM144.453 7.022V13.886H146.653C147.386 13.886 147.907 13.8053 148.215 13.644C148.538 13.468 148.699 13.0793 148.699 12.478V5.614H146.477C145.773 5.614 145.26 5.702 144.937 5.878C144.614 6.03933 144.453 6.42067 144.453 7.022Z" fill="white"/>
</g>
<defs>
<clipPath id="clip0_908_14">
<rect width="155" height="36" fill="white"/>
</clipPath>
</defs>
</svg>
